<!-- Generated by IcoMoon.io -->
<svg class="icon-moon" fill="currentColor" version="1.1" xmlns="http://www.w3.org/2000/svg" width="32" height="32" viewBox="0 0 32 32">
<title>moon</title>
<path d="M13.5025 5.4136A15.0755 15.0755 0 0 0 25.096 23.6082a11.1134 11.1134 0 0 1-7.9749 3.3893c-0.1385 0-0.2782 51e-4-0.4178 0a11.0944 11.0944 0 0 1-3.2008-21.5839M14.98 3a1.0024 1.0024 0 0 0-0.1746 0.0156 13.0959 13.0959 0 0 0 1.8246 25.9817c0.1641 6e-3 0.3282 0 0.4909 0a13.0724 13.0724 0 0 0 10.702-5.5556 1.0094 1.0094 0 0 0-0.7833-1.5644A13.08 13.08 0 0 1 15.8892 4.38 1.0149 1.0149 0 0 0 14.98 3z" />
</svg>
