<!-- Generated by IcoMoon.io -->
<svg class="icon-sun" fill="currentColor" version="1.1" xmlns="http://www.w3.org/2000/svg" width="32" height="32" viewBox="0 0 32 32">
  <title>sun</title>
  <path transform="translate(0 49e-4)" d="M16 12a4 4 0 1 1-4 4 4.0045 4.0045 0 0 1 4-4M16 10a6 6 0 1 0 6 6 6 6 0 0 0-6-6z" />
  <rect transform="rotate(-45 7.859428 7.855918)" width="1.9998" height="4.958" x="6.8536" y="5.3745" />
  <rect width="5" height="2" x="2" y="15.0049" />
  <rect transform="rotate(-45 7.859412 24.148925)" width="4.958" height="1.9998" x="5.3745" y="23.146601" />
  <rect width="2" height="5" x="15" y="25.0049" />
  <rect transform="rotate(-45 24.152419 24.148941)" width="1.9998" height="4.958" x="23.146601" y="21.6675" />
  <rect width="5" height="2" x="25" y="15.0049" />
  <rect transform="rotate(-45 24.152434 7.855934)" width="4.958" height="1.9998" x="21.6675" y="6.8536" />
  <rect width="2" height="5" x="15" y="2.0049" />
</svg>
